<svg width="584" height="438" viewBox="0 0 584 438" fill="none" xmlns="http://www.w3.org/2000/svg">
<g filter="url(#filter0_b_1_57)">
<path d="M1.91778 163.401C-3.55966 142 9.3494 120.21 30.751 114.733L471.543 1.9178C492.945 -3.55964 514.735 9.34942 520.212 30.751L582.694 274.882C588.171 296.284 575.262 318.073 553.861 323.551L113.069 436.366C91.667 441.843 69.8773 428.934 64.3998 407.532L1.91778 163.401Z" fill="url(#paint0_radial_1_57)" fill-opacity="0.8"/>
<path d="M31.1229 116.186L471.915 3.37096C492.514 -1.90108 513.487 10.5239 518.759 31.1229L581.241 275.254C586.513 295.853 574.088 316.826 553.489 322.098L112.697 434.912C92.0976 440.184 71.125 427.76 65.853 407.161L3.37094 163.029C-1.90109 142.43 10.5239 121.458 31.1229 116.186Z" stroke="url(#paint1_radial_1_57)" stroke-width="3"/>
<path d="M31.1229 116.186L471.915 3.37096C492.514 -1.90108 513.487 10.5239 518.759 31.1229L581.241 275.254C586.513 295.853 574.088 316.826 553.489 322.098L112.697 434.912C92.0976 440.184 71.125 427.76 65.853 407.161L3.37094 163.029C-1.90109 142.43 10.5239 121.458 31.1229 116.186Z" stroke="url(#paint2_radial_1_57)" stroke-opacity="0.5" stroke-width="3"/>
</g>
<defs>
<filter id="filter0_b_1_57" x="-39.3409" y="-39.3409" width="663.294" height="516.965" filterUnits="userSpaceOnUse" color-interpolation-filters="sRGB">
<feFlood flood-opacity="0" result="BackgroundImageFix"/>
<feGaussianBlur in="BackgroundImageFix" stdDeviation="20"/>
<feComposite in2="SourceAlpha" operator="in" result="effect1_backgroundBlur_1_57"/>
<feBlend mode="normal" in="SourceGraphic" in2="effect1_backgroundBlur_1_57" result="shape"/>
</filter>
<radialGradient id="paint0_radial_1_57" cx="0" cy="0" r="1" gradientUnits="userSpaceOnUse" gradientTransform="translate(464.36 -180.731) rotate(135.059) scale(574.202 915.588)">
<stop stop-color="white" stop-opacity="0.58"/>
<stop offset="1" stop-color="#BCBCBC" stop-opacity="0.08"/>
</radialGradient>
<radialGradient id="paint1_radial_1_57" cx="0" cy="0" r="1" gradientUnits="userSpaceOnUse" gradientTransform="translate(438.642 -123.886) rotate(139.156) scale(495.009 788.636)">
<stop stop-color="white"/>
<stop offset="1" stop-color="white" stop-opacity="0"/>
</radialGradient>
<radialGradient id="paint2_radial_1_57" cx="0" cy="0" r="1" gradientUnits="userSpaceOnUse" gradientTransform="translate(88.8857 197.523) rotate(-41.128) scale(498.738 794.622)">
<stop stop-color="#FF6D1B"/>
<stop offset="1" stop-color="#DD6F1F" stop-opacity="0.85"/>
</radialGradient>
</defs>
</svg>
